<svg xmlns="http://www.w3.org/2000/svg" xmlns:xlink="http://www.w3.org/1999/xlink" width="49.999" height="50" viewBox="0 0 49.999 50">
  <defs>
    <style>
      .cls-1 {
        fill: url(#linear-gradient);
      }
    </style>
    <linearGradient id="linear-gradient" x1="0.103" x2="0.962" y2="0.929" gradientUnits="objectBoundingBox">
      <stop offset="0" stop-color="#e26d38"/>
      <stop offset="0.522" stop-color="#cd7b2d"/>
      <stop offset="1" stop-color="#f1b013"/>
    </linearGradient>
  </defs>
  <path id="Exclusion_18" data-name="Exclusion 18" class="cls-1" d="M413.463,119a3.535,3.535,0,0,1-1.23-6.835H399.047a3.5,3.5,0,1,1-2.46,0h-4.5v-.047l-9.7-40.191L376,71l.271-2,7.692,1.117,0,.02.008,0,1.085,4.5H426l-5.828,28.731H391.987l1.637,6.784H418.37v2.017h-3.678A3.535,3.535,0,0,1,413.463,119ZM400.524,89.119l-6.691,7.431,1.486,1.338,5.353-5.945,5.2,4.684,10.72-11.905.145,2.75,2-.105-.329-6.269-2,.1-4.053.212.1,2,2.75-.144L405.726,93.8l-5.2-4.684Z" transform="translate(-376 -69)"/>
</svg>
