<svg xmlns="http://www.w3.org/2000/svg" xmlns:xlink="http://www.w3.org/1999/xlink" width="57.662" height="57.662" viewBox="0 0 57.662 57.662">
  <defs>
    <style>
      .cls-1 {
        fill: none;
        stroke: #707070;
      }

      .cls-2 {
        fill: url(#linear-gradient);
      }

      .cls-3 {
        fill: url(#linear-gradient-2);
      }

      .cls-4, .cls-5 {
        stroke: none;
      }

      .cls-5 {
        fill: #fff;
      }
    </style>
    <linearGradient id="linear-gradient" x1="0.5" x2="0.5" y2="1" gradientUnits="objectBoundingBox">
      <stop offset="0" stop-color="#e26d38"/>
      <stop offset="0.522" stop-color="#cd7b2d"/>
      <stop offset="1" stop-color="#f1b013"/>
    </linearGradient>
    <linearGradient id="linear-gradient-2" x1="-1.694" y1="0.548" x2="2.285" y2="0.511" xlink:href="#linear-gradient"/>
  </defs>
  <g id="Group_69" data-name="Group 69" transform="translate(-28.17 -164.311)">
    <g id="Group_20" data-name="Group 20" transform="translate(32 168.142)">
      <path id="Path_16" data-name="Path 16" class="cls-1" d="M203.308,87.987" transform="translate(-182.728 -42.597)"/>
      <g id="Group_8" data-name="Group 8" transform="translate(0.201 5.215) rotate(-45)">
        <path id="Union_25" data-name="Union 25" class="cls-2" d="M1,60.08a1,1,0,0,1-1-1V7.292L3.718,0,7.435,7.292V54h0v5.078a1,1,0,0,1-1,1Z"/>
      </g>
      <g id="Union_23" data-name="Union 23" class="cls-3" transform="translate(39.445 0.042) rotate(45)">
        <path class="cls-4" d="M 10.15099143981934 57.46203231811523 L 10.15099143981934 55.72400283813477 L 10.15099143981934 49.87076187133789 L 7.433482646942139 48.50559616088867 L 4.716721534729004 49.87069702148438 L 4.716721534729004 55.72315979003906 L 4.716721534729004 57.46070098876953 L 3.214351415634155 56.58781051635742 C 1.956141352653503 55.85678100585938 0.9007013440132141 54.80538177490234 0.1621413379907608 53.54726028442383 C -0.5982786417007446 52.24951171875 -0.9999986886978149 50.76518249511719 -0.9999986886978149 49.25403213500977 C -0.9999986886978149 46.44269943237305 0.4105209708213806 43.80495071411133 2.716721296310425 42.236083984375 L 2.716721296310425 13.48768615722656 C 0.4102801382541656 11.91871070861816 -0.9999986886978149 9.281169891357422 -0.9999986886978149 6.469961643218994 C -0.9999986886978149 4.958821296691895 -0.5982786417007446 3.474491357803345 0.1617313325405121 2.177441358566284 C 0.9003413319587708 0.9192314147949219 1.955611348152161 -0.132358580827713 3.213861227035522 -0.8643685579299927 L 4.716721534729004 -1.738678574562073 L 4.716721534729004 1.419067416463804e-06 L 4.716721534729004 5.853233814239502 L 7.434220790863037 7.218405246734619 L 10.15099143981934 5.85329532623291 L 10.15099143981934 1.419067416463804e-06 L 10.15099143981934 -1.738028526306152 L 11.65357112884521 -0.8645285964012146 C 12.91115093231201 -0.1334585845470428 13.96646118164062 0.917811393737793 14.70540142059326 2.175621509552002 C 15.46644115447998 3.472801446914673 15.8685417175293 4.957581520080566 15.8685417175293 6.469961643218994 C 15.8685417175293 9.281338691711426 14.45793724060059 11.9190149307251 12.15099143981934 13.48801231384277 L 12.15099143981934 42.23575592041016 C 14.45796394348145 43.80459976196289 15.8685417175293 46.44233703613281 15.8685417175293 49.25403213500977 C 15.8685417175293 50.76587295532227 15.46644115447998 52.25036239624023 14.70570087432861 53.54704284667969 C 13.96597099304199 54.80619049072266 12.91067123413086 55.85774230957031 11.65357112884521 56.58853149414062 L 10.15099143981934 57.46203231811523 Z"/>
        <path class="cls-5" d="M 11.15099143981934 55.72400283813477 C 12.26165103912354 55.07834243774414 13.19167137145996 54.15000152587891 13.84318161010742 53.04101181030273 C 14.51393127441406 51.89772033691406 14.8685417175293 50.5880012512207 14.8685417175293 49.25403213500977 C 14.8685417175293 46.49462127685547 13.37154102325439 44.08013153076172 11.15099143981934 42.78684997558594 L 11.15099143981934 12.93695163726807 C 13.37154102325439 11.64348125457764 14.8685417175293 9.228811264038086 14.8685417175293 6.469961643218994 C 14.8685417175293 5.135161399841309 14.51393127441406 3.825441360473633 13.84318161010742 2.682161331176758 C 13.19167137145996 1.573171377182007 12.26165103912354 0.6456614136695862 11.15099143981934 1.419067416463804e-06 L 11.15099143981934 6.469961643218994 L 7.434271335601807 8.337521553039551 L 3.716721296310425 6.469961643218994 L 3.716721296310425 1.419067416463804e-06 C 2.606891393661499 0.6456614136695862 1.676031351089478 1.573171377182007 1.024521350860596 2.682991504669189 C 0.354611337184906 3.826281309127808 1.335601837126887e-06 5.135161399841309 1.335601837126887e-06 6.469961643218994 C 1.335601837126887e-06 9.228561401367188 1.496491312980652 11.64313125610352 3.716721296310425 12.93668174743652 L 3.716721296310425 42.7871208190918 C 1.496491312980652 44.08049011230469 1.335601837126887e-06 46.49488067626953 1.335601837126887e-06 49.25403213500977 C 1.335601837126887e-06 50.5880012512207 0.354611337184906 51.89772033691406 1.024521350860596 53.04101181030273 C 1.676031351089478 54.15083312988281 2.606891393661499 55.07834243774414 3.716721296310425 55.72315979003906 L 3.716721296310425 49.25403213500977 L 7.433431148529053 47.38648223876953 L 11.15099143981934 49.25403213500977 L 11.15099143981934 55.72400283813477 M 9.150991439819336 59.20005035400391 L 9.150991439819336 50.48749160766602 L 7.433534145355225 49.62471008300781 L 5.716721534729004 50.48736572265625 L 5.716721534729004 59.1982421875 L 2.711981296539307 57.45247268676758 C 1.305221319198608 56.6351318359375 0.1252913326025009 55.45979309082031 -0.700248658657074 54.05352020263672 C -1.550838708877563 52.60188293457031 -1.999998688697815 50.94272994995117 -1.999998688697815 49.25403213500977 C -1.999998688697815 47.56669235229492 -1.550128698348999 45.90841293334961 -0.6990286707878113 44.45847320556641 C -0.07687211781740189 43.3985481262207 0.7466023564338684 42.46935272216797 1.716721296310425 41.72539520263672 L 1.716721296310425 13.99833679199219 C 0.7466407418251038 13.25434112548828 -0.07687211781740189 12.32507705688477 -0.6990286707878113 11.26516151428223 C -1.550128698348999 9.815211296081543 -1.999998688697815 8.157061576843262 -1.999998688697815 6.469961643218994 C -1.999998688697815 4.781271457672119 -1.550838708877563 3.122121334075928 -0.701068639755249 1.671881437301636 C 0.1248313337564468 0.26499143242836 1.304421305656433 -0.910438597202301 2.711001396179199 -1.72873854637146 L 5.716721534729004 -3.47735857963562 L 5.716721534729004 5.23650598526001 L 7.434170722961426 6.099289417266846 L 9.150991439819336 5.236629486083984 L 9.150991439819336 -3.476048469543457 L 12.15615177154541 -1.729058623313904 C 13.5620813369751 -0.9117485880851746 14.7417516708374 0.2633114159107208 15.5676212310791 1.669091463088989 C 16.41889190673828 3.120071411132812 16.8685417175293 4.779841423034668 16.8685417175293 6.469961643218994 C 16.8685417175293 8.157211303710938 16.41854095458984 9.815511703491211 15.56718158721924 11.26558113098145 C 14.94488906860352 12.32550525665283 14.12122440338135 13.25475788116455 13.15099143981934 13.99872779846191 L 13.15099143981934 41.72500991821289 C 14.12126541137695 42.46893692016602 14.94488906860352 43.39811706542969 15.56718158721924 44.45804214477539 C 16.41854095458984 45.90811157226562 16.8685417175293 47.56653213500977 16.8685417175293 49.25403213500977 C 16.8685417175293 50.94361114501953 16.41890144348145 52.60308074951172 15.56822109222412 54.05306243896484 C 14.74127101898193 55.4606819152832 13.56160163879395 56.63603210449219 12.15615177154541 57.45306015014648 L 9.150991439819336 59.20005035400391 Z"/>
      </g>
    </g>
  </g>
</svg>
