<?xml version="1.0" encoding="UTF-8"?>
<svg width="160px" height="167px" viewBox="0 0 160 167" version="1.1" xmlns="http://www.w3.org/2000/svg" xmlns:xlink="http://www.w3.org/1999/xlink">
    <title>DO6-Hero-Pattern</title>
    <g id="CTA" stroke="none" stroke-width="1" fill="none" fill-rule="evenodd" opacity="0.1">
        <g id="Homepage-Desktop-@1024" transform="translate(-833.000000, -230.000000)" fill="#FFFFFF" fill-rule="nonzero">
            <g id="DO6-Hero-Pattern" transform="translate(833.000000, 230.419923)">
                <g id="Group" transform="translate(0.000000, -0.344510)">
                    <path d="M126.87539,28.4736426 C126.874695,28.3517543 126.904749,28.2316539 126.962786,28.1244375 L142.772637,0.778995882 C142.893144,0.558809713 143.126481,0.424121376 143.377606,0.429618623 C143.629877,0.433165342 143.863014,0.564813071 143.996019,0.778995882 L159.799148,28.1244375 C159.919223,28.3322153 159.919223,28.588208 159.799148,28.7959857 C159.678641,29.0161719 159.445305,29.1508602 159.19418,29.145363 L127.567755,29.145363 C127.319026,29.1483438 127.088888,29.014009 126.969508,28.7959857 C126.911324,28.6982326 126.878943,28.587318 126.87539,28.4736426 L126.87539,28.4736426 Z M143.384328,2.50487469 L128.777693,27.781948 L157.964076,27.781948 L143.384328,2.50487469 Z" id="Shape"></path>
                    <path d="M126.875361,28.4736426 C126.874695,28.3517543 126.904749,28.2316539 126.962786,28.1244375 C127.085083,27.9068449 127.318067,27.7749465 127.567755,27.7816824 L159.19418,27.7816824 C159.443868,27.7749465 159.676851,27.9068449 159.799148,28.1244375 C159.910291,28.3345174 159.910291,28.5859058 159.799148,28.7959857 L143.989297,56.1750048 C143.868141,56.3904351 143.63835,56.5219879 143.39105,56.5176059 C143.138754,56.5207761 142.903535,56.3905072 142.772637,56.1750048 L126.962786,28.8228476 C126.904194,28.7158471 126.874104,28.5956011 126.875361,28.4736426 Z M157.990964,29.1451908 L128.777693,29.1451908 L143.384328,54.4222641 L157.990964,29.1451908 Z" id="Shape"></path>
                    <path d="M111.0789,1.1416319 C111.076989,1.02172144 111.107162,0.903462252 111.166378,0.799142328 L111.166378,0.799142328 C111.291475,0.582591743 111.521119,0.447485437 111.771347,0.443167483 L143.364163,0.443167483 C143.612892,0.440068796 143.84303,0.574403548 143.962409,0.792426846 C144.082484,1.00020457 144.082484,1.25619729 143.962409,1.46397502 L128.172724,28.8295631 C128.059014,29.0574963 127.826032,29.2015564 127.571116,29.2015564 C127.316199,29.2015564 127.083218,29.0574963 126.969508,28.8295631 L111.166378,1.49083695 C111.107787,1.38383643 111.077697,1.26359043 111.0789,1.1416319 Z M142.167669,1.81318007 L112.967841,1.81318007 L127.567755,27.0768224 L142.167669,1.81318007 Z" id="Shape"></path>
                    <path d="M111.078994,55.8056533 C111.080984,55.6862434 111.11091,55.5689548 111.166378,55.4631637 L126.962786,28.1244375 C127.0751,27.8927599 127.31009,27.7456104 127.567755,27.7456104 C127.82542,27.7456104 128.06041,27.8927599 128.172724,28.1244375 L143.975853,55.4765947 C144.116059,55.6884281 144.124662,55.9611565 143.998085,56.1813893 C143.871509,56.4016221 143.631407,56.5316818 143.377606,56.5174944 L111.784791,56.5174944 C111.533666,56.5231638 111.300329,56.3884755 111.179822,56.1682893 C111.115718,56.0580168 111.081002,55.9331583 111.078994,55.8056533 L111.078994,55.8056533 Z M127.567755,29.8637473 L112.967841,55.1273896 L142.167669,55.1273896 L127.567755,29.8637473 Z" id="Shape"></path>
                    <path d="M95.2758646,28.4736426 C95.2777884,28.3512492 95.3101261,28.2312517 95.3699708,28.1244375 C95.4922679,27.9068449 95.7252514,27.7749465 95.9749396,27.7816824 L127.567755,27.7816824 C127.817443,27.7749465 128.050427,27.9068449 128.172724,28.1244375 C128.283866,28.3345174 128.283866,28.5859058 128.172724,28.7959857 L112.376316,56.1347119 C112.264003,56.3663895 112.029012,56.513539 111.771347,56.513539 C111.513683,56.513539 111.278692,56.3663895 111.166378,56.1347119 L95.3699708,28.7959857 C95.3135612,28.6974708 95.281312,28.5870074 95.2758646,28.4736426 L95.2758646,28.4736426 Z M126.364539,29.1451908 L97.1781554,29.1451908 L111.771347,54.3954021 L126.364539,29.1451908 Z" id="Shape"></path>
                    <path d="M95.2758646,28.4736426 C95.2777884,28.3512492 95.3101261,28.2312517 95.3699708,28.1244375 L111.1731,0.792426846 C111.29248,0.574403548 111.522618,0.440068796 111.771347,0.443049586 C112.022473,0.43755234 112.255809,0.572240677 112.376316,0.792426846 L128.172724,28.1244375 C128.292798,28.3322153 128.292798,28.588208 128.172724,28.7959857 C128.052217,29.0161719 127.81888,29.1508602 127.567755,29.145363 L95.9749396,29.145363 C95.7262104,29.1483438 95.4960724,29.014009 95.3766927,28.7959857 C95.3161475,28.698873 95.2814407,28.5879168 95.2758646,28.4736426 Z M111.771347,2.53173662 L97.1781554,27.781948 L126.371261,27.781948 L111.771347,2.53173662 Z" id="Shape"></path>
                    <path d="M126.875361,83.1712414 C126.874104,83.0492829 126.904194,82.9290369 126.962786,82.8220364 L142.772637,55.4765947 C142.893144,55.2564085 143.126481,55.1217202 143.377606,55.1272174 C143.629877,55.1307642 143.863014,55.2624119 143.996019,55.4765947 L159.799148,82.8220364 C159.919223,83.0298141 159.919223,83.2858068 159.799148,83.4935845 C159.678641,83.7137707 159.445305,83.848459 159.19418,83.8429618 L127.567755,83.8429618 C127.319026,83.8459426 127.088888,83.7116078 126.969508,83.4935845 C126.911324,83.3958314 126.878943,83.2849168 126.875361,83.1712414 L126.875361,83.1712414 Z M143.384328,57.2024735 L128.777693,82.4795468 L157.964076,82.4795468 L143.384328,57.2024735 Z" id="Shape"></path>
                    <path d="M126.875361,83.1712414 C126.874104,83.0492829 126.904194,82.9290369 126.962786,82.8220364 C127.085083,82.6044437 127.318067,82.4725453 127.567755,82.4792812 L159.19418,82.4792812 C159.443868,82.4725453 159.676851,82.6044437 159.799148,82.8220364 C159.910291,83.0321162 159.910291,83.2835047 159.799148,83.4935845 L143.989297,110.839026 C143.869917,111.057049 143.639779,111.191384 143.39105,111.188231 C143.135155,111.199041 142.895348,111.063627 142.772637,110.839026 L126.962786,83.4935845 C126.908485,83.3945797 126.878533,83.2840917 126.875361,83.1712414 L126.875361,83.1712414 Z M157.990964,83.8427896 L128.777693,83.8427896 L143.384328,109.113147 L157.990964,83.8427896 Z" id="Shape"></path>
                    <path d="M111.078793,55.8392307 C111.076989,55.7193202 111.107162,55.6010611 111.166378,55.4967411 L111.166378,55.4967411 C111.285071,55.2739569 111.518768,55.136466 111.771347,55.1407201 L143.364163,55.1407201 C143.612892,55.1376676 143.84303,55.2720024 143.962409,55.4900257 C144.082484,55.6978034 144.082484,55.9537961 143.962409,56.1615738 L128.15928,83.5070155 C128.04557,83.7349487 127.812589,83.8790088 127.557672,83.8790088 C127.302756,83.8790088 127.069774,83.7349487 126.956064,83.5070155 L111.159657,56.1750048 C111.103933,56.0720177 111.076126,55.9562663 111.078793,55.8392307 Z M142.167669,56.5107789 L112.967841,56.5107789 L127.567755,81.7744212 L142.167669,56.5107789 Z" id="Shape"></path>
                    <path d="M111.078994,110.503252 C111.079953,110.383707 111.109939,110.26618 111.166378,110.160763 L126.962786,82.8220364 C127.0751,82.5903587 127.31009,82.4432092 127.567755,82.4432092 C127.82542,82.4432092 128.06041,82.5903587 128.172724,82.8220364 L143.975853,110.174194 C144.095928,110.381971 144.095928,110.637964 143.975853,110.845742 C143.856474,111.063765 143.626336,111.1981 143.377606,111.195119 L111.784791,111.195119 C111.533666,111.200616 111.300329,111.065928 111.179822,110.845742 C111.119667,110.741112 111.085118,110.623758 111.078994,110.503252 Z M127.567755,84.5613461 L112.967841,109.824988 L142.167669,109.824988 L127.567755,84.5613461 Z" id="Shape"></path>
                    <path d="M95.2758646,83.1712414 C95.2769213,83.0487281 95.309316,82.9285193 95.3699708,82.8220364 C95.4922679,82.6044437 95.7252514,82.4725453 95.9749396,82.4792812 L127.567755,82.4792812 C127.817443,82.4725453 128.050427,82.6044437 128.172724,82.8220364 C128.283866,83.0321162 128.283866,83.2835047 128.172724,83.4935845 L112.376316,110.825595 C112.255809,111.045781 112.022473,111.18047 111.771347,111.174972 C111.520222,111.18047 111.286885,111.045781 111.166378,110.825595 L95.3699708,83.4935845 C95.3135612,83.3950696 95.281312,83.2846062 95.2758646,83.1712414 Z M126.364539,83.8427896 L97.1781554,83.8427896 L111.771347,109.093001 L126.364539,83.8427896 Z" id="Shape"></path>
                    <path d="M95.2758646,83.1712414 C95.2769213,83.0487281 95.309316,82.9285193 95.3699708,82.8220364 L111.1731,55.4900257 C111.29248,55.2720024 111.522618,55.1376676 111.771347,55.1406484 C112.022473,55.1351511 112.255809,55.2698395 112.376316,55.4900257 L128.172724,82.8220364 C128.292798,83.0298141 128.292798,83.2858068 128.172724,83.4935845 C128.052217,83.7137707 127.81888,83.848459 127.567755,83.8429618 L95.9749396,83.8429618 C95.7262104,83.8459426 95.4960724,83.7116078 95.3766927,83.4935845 C95.3161475,83.3964718 95.2814407,83.2855156 95.2758646,83.1712414 Z M111.771347,57.2293354 L97.1781554,82.4795468 L126.371261,82.4795468 L111.771347,57.2293354 Z" id="Shape"></path>
                    <path d="M79.4794167,55.7384985 C79.4781596,55.6165399 79.5082497,55.4962939 79.5668413,55.3892934 L95.3766927,28.0438518 C95.4960724,27.8258285 95.7262104,27.6914937 95.9749396,27.6945924 C96.2282462,27.6941323 96.4631482,27.8267766 96.5933522,28.0438518 L112.403204,55.3892934 C112.514346,55.5993733 112.514346,55.8507617 112.403204,56.0608416 C112.282697,56.2810278 112.04936,56.4157161 111.798235,56.4102189 L80.2054195,56.4102189 C79.8341806,56.4102189 79.533232,56.1093843 79.533232,55.7384985 L79.4794167,55.7384985 Z M95.9816615,29.7495841 L81.3750259,55.0266574 L110.595019,55.0266574 L95.9816615,29.7495841 Z" id="Shape"></path>
                    <path d="M79.479457,55.7384985 C79.479457,55.3676127 79.7804056,55.0669503 80.1516445,55.0669503 L111.74446,55.0669503 C112.000516,55.0508414 112.24342,55.181757 112.370557,55.4043925 C112.497695,55.627028 112.48689,55.9025499 112.342707,56.1145655 L96.5933522,83.4129987 C96.4739726,83.631022 96.2438346,83.7653568 95.9951053,83.7622581 C95.7400984,83.7622581 95.503323,83.6301529 95.3699708,83.4129987 L79.5668413,56.0675571 C79.5115015,55.9665466 79.4815159,55.8536313 79.479457,55.7384985 L79.479457,55.7384985 Z M110.595019,56.4100467 L81.3750259,56.4100467 L95.9816615,81.6871199 L110.595019,56.4100467 Z" id="Shape"></path>
                    <path d="M63.6829555,28.3863413 C63.6810444,28.2664309 63.7112176,28.1481717 63.7704337,28.0438518 L63.7704337,28.0438518 C63.889126,27.8210675 64.1228234,27.6835766 64.3754025,27.687759 L95.9682178,27.687759 C96.2193433,27.6822618 96.4526797,27.8169501 96.5731866,28.0371363 C96.6932613,28.244914 96.6932613,28.5009067 96.5731866,28.7086845 L80.7767789,56.0675571 C80.6644655,56.2992347 80.4294748,56.4463842 80.1718101,56.4463842 C79.9141455,56.4463842 79.6791548,56.2992347 79.5668413,56.0675571 L63.7771556,28.7355464 C63.7144148,28.6299316 63.6818658,28.5091501 63.6829555,28.3863413 Z M94.7717239,29.0578895 L65.5718964,29.0578895 L80.1718101,54.3282473 L94.7717239,29.0578895 Z" id="Shape"></path>
                    <path d="M63.6829555,83.0503627 C63.6810444,82.9304523 63.7112176,82.8121931 63.7704337,82.7078732 L79.5668413,55.369147 C79.6873482,55.1489608 79.9206846,55.0142725 80.1718101,55.0197697 C80.4205394,55.0167889 80.6506774,55.1511237 80.7700571,55.369147 L96.5799085,82.7213041 C96.7210257,82.9341606 96.7291211,83.2085501 96.600798,83.4293409 C96.4724748,83.6501316 96.2299324,83.7791279 95.9749396,83.7622038 L64.3821244,83.7622038 C64.1966362,83.7625377 64.0192543,83.6862816 63.8919683,83.5514868 C63.7646823,83.416692 63.6988072,83.2353409 63.7099368,83.0503627 L63.6829555,83.0503627 Z M80.1718101,57.0815948 L65.5718964,82.3452372 L94.7784458,82.3452372 L80.1718101,57.0815948 Z" id="Shape"></path>
                    <path d="M47.8799198,55.7384985 C47.8809765,55.6159851 47.9133712,55.4957764 47.9740261,55.3892934 C48.094533,55.1691073 48.3278694,55.0344189 48.5789949,55.0400884 L80.1718101,55.0400884 C80.4278666,55.0239795 80.6707702,55.1548951 80.7979075,55.3775306 C80.9250449,55.6001661 80.9142399,55.875688 80.7700571,56.0877035 L64.9736494,83.4197142 C64.8542698,83.6377375 64.6241318,83.7720723 64.3754025,83.7690915 C64.124277,83.7745887 63.8909406,83.6399004 63.7704337,83.4197142 L47.9740261,56.0877035 C47.9133712,55.9812206 47.8809765,55.8610118 47.8799198,55.7384985 L47.8799198,55.7384985 Z M78.9685944,56.4100467 L49.7822106,56.4100467 L64.3754025,81.660258 L78.9685944,56.4100467 Z" id="Shape"></path>
                    <path d="M47.8799198,55.7384985 C47.8809765,55.6159851 47.9133712,55.4957764 47.9740261,55.3892934 L63.7704337,28.0572827 C63.8909406,27.8370966 64.124277,27.7024082 64.3754025,27.7079055 C64.6241318,27.7049247 64.8542698,27.8392594 64.9736494,28.0572827 L80.7700571,55.3892934 C80.9142399,55.601309 80.9250449,55.8768309 80.7979075,56.0994664 C80.6707702,56.3221019 80.4278666,56.4530175 80.1718101,56.4369086 L48.5789949,56.4369086 C48.3278694,56.442578 48.094533,56.3078897 47.9740261,56.0877035 C47.9133712,55.9812206 47.8809765,55.8610118 47.8799198,55.7384985 L47.8799198,55.7384985 Z M64.3754025,29.7965925 L49.7822106,55.0266574 L78.9685944,55.0266574 L64.3754025,29.7965925 Z" id="Shape"></path>
                    <path d="M79.4794167,110.415951 C79.4781596,110.293992 79.5082497,110.173746 79.5668413,110.066746 L95.3766927,82.7213041 C95.4960724,82.5032808 95.7262104,82.3689461 95.9749396,82.3720448 C96.2282462,82.3715846 96.4631482,82.504229 96.5933522,82.7213041 L112.403204,110.066746 C112.544321,110.279602 112.552416,110.553992 112.424093,110.774783 C112.29577,110.995573 112.053228,111.12457 111.798235,111.107645 L80.2054195,111.107645 C79.9557313,111.114647 79.7227478,110.982749 79.6004507,110.765156 C79.5300531,110.661425 79.4883154,110.540964 79.4794167,110.415951 Z M95.9816615,84.4404675 L81.3750259,109.717541 L110.595019,109.717541 L95.9816615,84.4404675 Z" id="Shape"></path>
                    <path d="M79.4794167,110.415951 C79.4794167,110.045065 79.7804056,109.744403 80.1516445,109.744403 L111.74446,109.744403 C112.000516,109.728294 112.24342,109.859209 112.370557,110.081845 C112.497695,110.30448 112.48689,110.580002 112.342707,110.792018 L96.5933522,138.110598 C96.4739726,138.328621 96.2438346,138.462956 95.9951053,138.459857 C95.7394071,138.4627 95.5013965,138.329745 95.3699708,138.110598 L79.5668413,110.765156 C79.5082497,110.658155 79.4781596,110.537909 79.4794167,110.415951 Z M110.595019,111.087499 L81.3750259,111.087499 L95.9816615,136.364572 L110.595019,111.087499 Z" id="Shape"></path>
                    <path d="M63.682848,83.0839401 C63.6817519,82.9619816 63.711842,82.8417356 63.7704337,82.7347351 L63.7704337,82.7347351 C63.8909406,82.5145489 64.124277,82.3798606 64.3754025,82.3853578 L95.9682178,82.3853578 C96.2193433,82.3798606 96.4526797,82.5145489 96.5731866,82.7347351 C96.6932613,82.9425128 96.6932613,83.1985055 96.5731866,83.4062833 L80.7700571,110.75844 C80.6577436,110.990118 80.4227529,111.137268 80.1650883,111.137268 C79.9074236,111.137268 79.6724329,110.990118 79.5601195,110.75844 L63.7637118,83.4197142 C63.7079884,83.3167271 63.6801817,83.2009757 63.682848,83.0839401 L63.682848,83.0839401 Z M94.7717239,83.7554883 L65.5718964,83.7554883 L80.1718101,109.019131 L94.7717239,83.7554883 Z" id="Shape"></path>
                    <path d="M63.6829229,137.747962 C63.6810444,137.628051 63.7112176,137.509792 63.7704337,137.405472 L79.5668413,110.066746 C79.6873482,109.84656 79.9206846,109.711871 80.1718101,109.717369 C80.4205394,109.714388 80.6506774,109.848722 80.7700571,110.066746 L96.5799085,137.418903 C96.7210257,137.631759 96.7291211,137.906149 96.600798,138.12694 C96.4724748,138.34773 96.2299324,138.476727 95.9749396,138.459803 L64.3821244,138.459803 C64.1295452,138.464157 63.8958479,138.326666 63.7771556,138.103882 C63.7132148,137.996315 63.6806213,137.873043 63.6829229,137.747962 Z M80.1718101,111.806056 L65.5718964,137.069698 L94.7784458,137.069698 L80.1718101,111.806056 Z" id="Shape"></path>
                    <path d="M47.8799198,110.415951 C47.8809765,110.293437 47.9133712,110.173229 47.9740261,110.066746 C48.094533,109.84656 48.3278694,109.711871 48.5789949,109.717541 L80.1718101,109.717541 C80.4278666,109.701432 80.6707702,109.832347 80.7979075,110.054983 C80.9250449,110.277618 80.9142399,110.55314 80.7700571,110.765156 L64.9736494,138.097167 C64.8542698,138.31519 64.6241318,138.449525 64.3754025,138.446544 C64.124277,138.452041 63.8909406,138.317353 63.7704337,138.097167 L47.9740261,110.765156 C47.9133712,110.658673 47.8809765,110.538464 47.8799198,110.415951 Z M78.9685944,111.087499 L49.7822106,111.087499 L64.3754025,136.33771 L78.9685944,111.087499 Z" id="Shape"></path>
                    <path d="M47.8799198,110.415951 C47.8809765,110.293437 47.9133712,110.173229 47.9740261,110.066746 L63.7704337,82.7347351 C63.8909406,82.5145489 64.124277,82.3798606 64.3754025,82.3853578 C64.6241318,82.382377 64.8542698,82.5167118 64.9736494,82.7347351 L80.7700571,110.066746 C80.8901318,110.274524 80.8901318,110.530516 80.7700571,110.738294 C80.648901,110.953724 80.41911,111.085277 80.1718101,111.081049 L48.5789949,111.081049 C48.3293066,111.087785 48.0963232,110.955887 47.9740261,110.738294 C47.9176164,110.639779 47.8853672,110.529316 47.8799198,110.415951 L47.8799198,110.415951 Z M64.3754025,84.4740449 L49.7822106,109.717541 L78.9685944,109.717541 L64.3754025,84.4740449 Z" id="Shape"></path>
                    <path d="M126.875361,137.86884 C126.874104,137.746882 126.904194,137.626636 126.962786,137.519635 L142.772637,110.174194 C142.893144,109.954007 143.126481,109.819319 143.377606,109.824816 C143.629877,109.828363 143.863014,109.960011 143.996019,110.174194 L159.799148,137.519635 C159.940266,137.732492 159.948361,138.006881 159.820038,138.227672 C159.691715,138.448463 159.449172,138.577459 159.19418,138.560535 L127.567755,138.560535 C127.320455,138.565028 127.090664,138.433476 126.969508,138.218045 C126.906767,138.112431 126.874218,137.991649 126.875361,137.86884 Z M143.384328,111.893357 L128.777693,137.17043 L157.964076,137.17043 L143.384328,111.893357 Z" id="Shape"></path>
                    <path d="M126.875402,137.86884 C126.875402,137.497954 127.17635,137.19712 127.547589,137.19712 L159.174014,137.19712 C159.425139,137.191623 159.658476,137.326311 159.778983,137.546497 C159.890125,137.756577 159.890125,138.007965 159.778983,138.218045 L143.969131,165.563487 C143.849752,165.78151 143.619614,165.915845 143.370884,165.912746 C143.117578,165.913206 142.882676,165.780562 142.752472,165.563487 L126.94262,138.218045 C126.891004,138.109199 126.867876,137.989049 126.875402,137.86884 L126.875402,137.86884 Z M157.990964,138.540388 L128.777693,138.540388 L143.384328,163.857755 L157.990964,138.540388 Z" id="Shape"></path>
                    <path d="M111.078994,110.530114 C111.076989,110.410204 111.107162,110.291944 111.166378,110.187624 L111.166378,110.187624 C111.286885,109.967438 111.520222,109.83275 111.771347,109.838419 L143.364163,109.838419 C143.617963,109.824232 143.858065,109.954292 143.984642,110.174524 C144.111218,110.394757 144.102615,110.667486 143.962409,110.879319 L128.15928,138.224761 C128.038773,138.444947 127.805437,138.579635 127.554311,138.574138 C127.305582,138.577119 127.075444,138.442784 126.956064,138.224761 L111.159657,110.89275 C111.099173,110.781854 111.071216,110.656165 111.078994,110.530114 Z M142.167669,111.201662 L112.967841,111.201662 L127.567755,136.465305 L142.167669,111.201662 Z" id="Shape"></path>
                    <path d="M111.078994,165.200851 C111.079953,165.081305 111.109939,164.963778 111.166378,164.858361 L126.962786,137.519635 C127.0751,137.287958 127.31009,137.140808 127.567755,137.140808 C127.82542,137.140808 128.06041,137.287958 128.172724,137.519635 L143.975853,164.865077 C144.095928,165.072855 144.095928,165.328847 143.975853,165.536625 C143.856474,165.754648 143.626336,165.888983 143.377606,165.885931 L111.784791,165.885931 C111.532212,165.890185 111.298514,165.752694 111.179822,165.52991 C111.120751,165.429683 111.086205,165.316938 111.078994,165.200851 Z M127.567755,139.258945 L112.967841,164.529303 L142.167669,164.529303 L127.567755,139.258945 Z" id="Shape"></path>
                    <path d="M95.2758646,137.86884 C95.2769213,137.746327 95.309316,137.626118 95.3699708,137.519635 C95.4904778,137.299449 95.7238141,137.164761 95.9749396,137.170258 L127.567755,137.170258 C127.81888,137.164761 128.052217,137.299449 128.172724,137.519635 C128.283866,137.729715 128.283866,137.981103 128.172724,138.191183 L112.376316,165.523194 C112.264003,165.754872 112.029012,165.902021 111.771347,165.902021 C111.513683,165.902021 111.278692,165.754872 111.166378,165.523194 L95.3699708,138.191183 C95.3135612,138.092668 95.281312,137.982205 95.2758646,137.86884 L95.2758646,137.86884 Z M126.364539,138.540388 L97.1781554,138.540388 L111.771347,163.7906 L126.364539,138.540388 Z" id="Shape"></path>
                    <path d="M95.2758646,137.86884 C95.2769213,137.746327 95.309316,137.626118 95.3699708,137.519635 L111.1731,110.187624 C111.28681,109.959691 111.519792,109.815631 111.774708,109.815631 C112.029625,109.815631 112.262606,109.959691 112.376316,110.187624 L128.172724,137.519635 C128.313841,137.732492 128.321936,138.006881 128.193613,138.227672 C128.06529,138.448463 127.822748,138.577459 127.567755,138.560535 L95.9749396,138.560535 C95.7276398,138.565028 95.4978488,138.433476 95.3766927,138.218045 C95.3115945,138.113115 95.2767073,137.992288 95.2758646,137.86884 Z M111.771347,111.926934 L97.1781554,137.17043 L126.371261,137.17043 L111.771347,111.926934 Z" id="Shape"></path>
                    <path d="M32.2246716,28.4736426 C32.2265953,28.3512492 32.2589331,28.2312517 32.3187778,28.1244375 L48.1219073,0.778995882 C48.2424142,0.558809713 48.4757506,0.424121376 48.7268761,0.429618623 C48.9801827,0.429276383 49.2150846,0.561920756 49.3452887,0.778995882 L65.1484182,28.1244375 C65.2684929,28.3322153 65.2684929,28.588208 65.1484182,28.7959857 C65.0290386,29.014009 64.7989006,29.1483438 64.5501713,29.1452451 L32.9371904,29.1452451 C32.6884611,29.1483438 32.4583231,29.014009 32.3389435,28.7959857 C32.2754433,28.6992906 32.2362427,28.5887117 32.2246716,28.4736426 Z M48.733598,2.50487469 L34.1269624,27.781948 L63.3402337,27.781948 L48.733598,2.50487469 Z" id="Shape"></path>
                    <path d="M32.2246716,28.4736426 C32.2265953,28.3512492 32.2589331,28.2312517 32.3187778,28.1244375 C32.4399339,27.9090072 32.6697249,27.7774545 32.9170248,27.781948 L64.5300056,27.781948 C64.7838065,27.7677605 65.023908,27.8978202 65.1504847,28.118053 C65.2770613,28.3382858 65.2684584,28.6110143 65.1282526,28.8228476 L49.3452887,56.1750048 C49.2229916,56.3925974 48.9900081,56.5244958 48.7403199,56.5177599 C48.4883652,56.5194291 48.2537679,56.3895043 48.1219073,56.1750048 L32.3187778,28.8228476 C32.258123,28.7163647 32.2257283,28.5961559 32.2246716,28.4736426 Z M63.3402337,29.1451908 L34.1269624,29.1451908 L48.733598,54.449126 L63.3402337,29.1451908 Z" id="Shape"></path>
                    <path d="M16.4281701,1.1416319 C16.426259,1.02172144 16.4564322,0.903462252 16.5156483,0.799142328 L16.5156483,0.799142328 C16.6332271,0.578521629 16.86372,0.441392375 17.1138952,0.443221795 L48.7067105,0.443221795 C48.962767,0.42711287 49.2056706,0.558028466 49.3328079,0.780663986 C49.4599453,1.00329951 49.4491403,1.27882142 49.3049574,1.49083695 L33.5219936,28.8295631 C33.3996965,29.0471558 33.166713,29.1790541 32.9170248,29.1723182 C32.6697249,29.1765462 32.4399339,29.0449935 32.3187778,28.8295631 L16.5223702,1.49083695 C16.4617154,1.38435398 16.4293207,1.26414524 16.4281701,1.1416319 Z M47.5169385,1.81318007 L18.3238329,1.81318007 L32.9371904,27.0835379 L47.5169385,1.81318007 Z" id="Shape"></path>
                    <path d="M16.4282639,55.8056533 C16.4282639,55.6851216 16.460805,55.566821 16.5223702,55.4631637 L32.3187778,28.1244375 C32.4399339,27.9090072 32.6697249,27.7774545 32.9170248,27.7816824 C33.166713,27.7749465 33.3996965,27.9068449 33.5219936,28.1244375 L49.3251231,55.4765947 C49.4653288,55.6884281 49.4739318,55.9611565 49.3473552,56.1813893 C49.2207785,56.4016221 48.980677,56.5316818 48.7268761,56.5174944 L17.1340609,56.5174944 C16.757897,56.492866 16.4645895,56.1822557 16.4618733,55.8056533 L16.4282639,55.8056533 Z M32.9371904,29.8637473 L18.3238329,55.1273896 L47.5169385,55.1273896 L32.9371904,29.8637473 Z" id="Shape"></path>
                    <path d="M0.631856305,28.4736426 C0.633780081,28.3512492 0.666117855,28.2312517 0.725962564,28.1244375 C0.847118619,27.9090072 1.07690967,27.7774545 1.32420949,27.7816824 L32.9371904,27.7816824 C33.1868786,27.7749465 33.4198621,27.9068449 33.5421592,28.1244375 C33.6533018,28.3345174 33.6533018,28.5859058 33.5421592,28.7959857 L17.7255859,56.1615738 C17.6118763,56.389507 17.3788945,56.5335671 17.1239781,56.5335671 C16.8690616,56.5335671 16.6360798,56.389507 16.5223702,56.1615738 L0.725962564,28.8228476 C0.665307738,28.7163647 0.632913034,28.5961559 0.631856305,28.4736426 Z M31.713809,29.1451908 L2.5341471,29.1451908 L17.127339,54.3954021 L31.713809,29.1451908 Z" id="Shape"></path>
                    <path d="M0.631856305,28.4736426 C0.633780081,28.3512492 0.666117855,28.2312517 0.725962564,28.1244375 L16.5223702,0.792426846 C16.6360798,0.564493648 16.8690616,0.420433572 17.1239781,0.420433572 C17.3788945,0.420433572 17.6118763,0.564493648 17.7255859,0.792426846 L33.5219936,28.1244375 C33.6331361,28.3345174 33.6331361,28.5859058 33.5219936,28.7959857 C33.4014866,29.0161719 33.1681503,29.1508602 32.9170248,29.145363 L1.34437512,29.145363 C1.09564584,29.1483438 0.865507834,29.014009 0.74612819,28.7959857 C0.682628051,28.6992906 0.643427411,28.5887117 0.631856305,28.4736426 Z M17.127339,2.53173662 L2.5341471,27.781948 L31.713809,27.781948 L17.127339,2.53173662 Z" id="Shape"></path>
                    <path d="M32.2246716,83.1712414 C32.2257283,83.0487281 32.258123,82.9285193 32.3187778,82.8220364 L48.1219073,55.4765947 C48.2424142,55.2564085 48.4757506,55.1217202 48.7268761,55.1272174 C48.9801827,55.1268752 49.2150846,55.2595196 49.3452887,55.4765947 L65.1484182,82.8220364 C65.2684929,83.0298141 65.2684929,83.2858068 65.1484182,83.4935845 C65.0290386,83.7116078 64.7989006,83.8459426 64.5501713,83.8428439 L32.9371904,83.8428439 C32.6884611,83.8459426 32.4583231,83.7116078 32.3389435,83.4935845 C32.2754433,83.3968894 32.2362427,83.2863105 32.2246716,83.1712414 Z M48.733598,57.2024735 L34.1269624,82.4795468 L63.3402337,82.4795468 L48.733598,57.2024735 Z" id="Shape"></path>
                    <path d="M32.2246716,83.1712414 C32.2257283,83.0487281 32.258123,82.9285193 32.3187778,82.8220364 C32.4399339,82.606606 32.6697249,82.4750533 32.9170248,82.4795468 L64.5300056,82.4795468 C64.7838065,82.4653593 65.023908,82.5954191 65.1504847,82.8156518 C65.2770613,83.0358846 65.2684584,83.3086131 65.1282526,83.5204465 L49.3452887,110.865888 C49.2247818,111.086074 48.9914454,111.220763 48.7403199,111.215265 C48.4866585,111.216968 48.2511276,111.083969 48.1219073,110.865888 L32.3187778,83.5204465 C32.258123,83.4139635 32.2257283,83.2937548 32.2246716,83.1712414 Z M63.3402337,83.8427896 L34.1269624,83.8427896 L48.733598,109.140009 L63.3402337,83.8427896 Z" id="Shape"></path>
                    <path d="M16.4281701,55.8392307 C16.426259,55.7193202 16.4564322,55.6010611 16.5156483,55.4967411 L16.5156483,55.4967411 C16.6332271,55.2761204 16.86372,55.1389912 17.1138952,55.1408206 L48.7067105,55.1408206 C48.962767,55.1247117 49.2056706,55.2556273 49.3328079,55.4782628 C49.4599453,55.7008983 49.4491403,55.9764202 49.3049574,56.1884358 L33.5219936,83.5204465 C33.4014866,83.7406326 33.1681503,83.875321 32.9170248,83.8698237 C32.6682955,83.8728045 32.4381575,83.7384698 32.3187778,83.5204465 L16.5223702,56.1884358 C16.4625255,56.0816216 16.4301877,55.9616241 16.4281701,55.8392307 L16.4281701,55.8392307 Z M47.5169385,56.5107789 L18.3238329,56.5107789 L32.9371904,81.7811367 L47.5169385,56.5107789 Z" id="Shape"></path>
                    <path d="M16.4282639,110.503252 C16.4282639,110.38272 16.460805,110.26442 16.5223702,110.160763 L32.3187778,82.8220364 C32.4399339,82.606606 32.6697249,82.4750533 32.9170248,82.4792812 C33.166713,82.4725453 33.3996965,82.6044437 33.5219936,82.8220364 L49.3251231,110.174194 C49.4451978,110.381971 49.4451978,110.637964 49.3251231,110.845742 C49.2057434,111.063765 48.9756054,111.1981 48.7268761,111.195001 L17.1340609,111.195001 C16.8853316,111.1981 16.6551936,111.063765 16.5358139,110.845742 C16.4695226,110.743443 16.4323445,110.62505 16.4282639,110.503252 Z M32.9371904,84.5613461 L18.3238329,109.824988 L47.5169385,109.824988 L32.9371904,84.5613461 Z" id="Shape"></path>
                    <path d="M0.631856305,83.1712414 C0.632913034,83.0487281 0.665307738,82.9285193 0.725962564,82.8220364 C0.847118619,82.606606 1.07690967,82.4750533 1.32420949,82.4792812 L32.9371904,82.4792812 C33.1868786,82.4725453 33.4198621,82.6044437 33.5421592,82.8220364 C33.6533018,83.0321162 33.6533018,83.2835047 33.5421592,83.4935845 L17.7457516,110.825595 C17.6263719,111.043619 17.3962339,111.177953 17.1475046,111.174972 C16.8963791,111.18047 16.6630427,111.045781 16.5425358,110.825595 L0.74612819,83.4935845 C0.682628051,83.3968894 0.643427411,83.2863105 0.631856305,83.1712414 Z M31.713809,83.8427896 L2.5341471,83.8427896 L17.127339,109.093001 L31.713809,83.8427896 Z" id="Shape"></path>
                    <path d="M0.631856305,83.1712414 C0.632913034,83.0487281 0.665307738,82.9285193 0.725962564,82.8220364 L16.5223702,55.4900257 C16.6360798,55.2620925 16.8690616,55.1180324 17.1239781,55.1180324 C17.3788945,55.1180324 17.6118763,55.2620925 17.7255859,55.4900257 L33.5219936,82.8220364 C33.6331361,83.0321162 33.6331361,83.2835047 33.5219936,83.4935845 C33.4014866,83.7137707 33.1681503,83.848459 32.9170248,83.8429618 L1.34437512,83.8429618 C1.09564584,83.8459426 0.865507834,83.7116078 0.74612819,83.4935845 C0.682628051,83.3968894 0.643427411,83.2863105 0.631856305,83.1712414 Z M17.127339,57.2293354 L2.5341471,82.4795468 L31.713809,82.4795468 L17.127339,57.2293354 Z" id="Shape"></path>
                    <path d="M32.2246716,137.86884 C32.2257283,137.746327 32.258123,137.626118 32.3187778,137.519635 L48.1219073,110.174194 C48.2424142,109.954007 48.4757506,109.819319 48.7268761,109.824816 C48.9801827,109.824474 49.2150846,109.957118 49.3452887,110.174194 L65.1484182,137.519635 C65.288624,137.731469 65.297227,138.004197 65.1706503,138.22443 C65.0440737,138.444663 64.8039721,138.574722 64.5501713,138.560535 L32.9371904,138.560535 C32.6898906,138.565028 32.4600995,138.433476 32.3389435,138.218045 C32.2712071,138.113503 32.2318294,137.993168 32.2246716,137.86884 Z M48.733598,111.893357 L34.1269624,137.17043 L63.3402337,137.17043 L48.733598,111.893357 Z" id="Shape"></path>
                    <path d="M32.2246716,137.86884 C32.2257283,137.746327 32.258123,137.626118 32.3187778,137.519635 C32.4381575,137.301612 32.6682955,137.167277 32.9170248,137.17043 L64.5300056,137.17043 C64.7860621,137.154321 65.0289657,137.285237 65.1561031,137.507872 C65.2832404,137.730508 65.2724354,138.00603 65.1282526,138.218045 L49.3452887,165.563487 C49.2247818,165.783673 48.9914454,165.918361 48.7403199,165.912864 C48.4873633,165.911879 48.2530694,165.779578 48.1219073,165.563487 L32.3187778,138.218045 C32.258123,138.111562 32.2257283,137.991354 32.2246716,137.86884 Z M63.3402337,138.540388 L34.1269624,138.540388 L48.733598,163.857755 L63.3402337,138.540388 Z" id="Shape"></path>
                    <path d="M16.4281701,110.530114 C16.426259,110.410204 16.4564322,110.291944 16.5156483,110.187624 L16.5156483,110.187624 C16.635028,109.969601 16.865166,109.835266 17.1138952,109.838419 L48.7067105,109.838419 C48.9605113,109.824232 49.2006129,109.954292 49.3271896,110.174524 C49.4537662,110.394757 49.4451632,110.667486 49.3049574,110.879319 L33.5219936,138.21133 C33.4014866,138.431516 33.1681503,138.566204 32.9170248,138.560707 C32.6682955,138.563688 32.4381575,138.429353 32.3187778,138.21133 L16.5223702,110.879319 C16.4617154,110.772836 16.4293207,110.652627 16.4281701,110.530114 Z M47.5169385,111.201662 L18.3238329,111.201662 L32.9371904,136.478735 L47.5169385,111.201662 Z" id="Shape"></path>
                    <path d="M16.4282639,165.200851 C16.4282639,165.080319 16.460805,164.962019 16.5223702,164.858361 L32.3187778,137.519635 C32.4381575,137.301612 32.6682955,137.167277 32.9170248,137.170258 C33.1681503,137.164761 33.4014866,137.299449 33.5219936,137.519635 L49.3251231,164.865077 C49.4451978,165.072855 49.4451978,165.328847 49.3251231,165.536625 C49.2057434,165.754648 48.9756054,165.888983 48.7268761,165.885884 L17.1340609,165.885884 C16.7593795,165.858073 16.4678022,165.549295 16.4618733,165.173989 L16.4282639,165.200851 Z M32.9371904,139.258945 L18.3238329,164.529303 L47.5169385,164.529303 L32.9371904,139.258945 Z" id="Shape"></path>
                    <path d="M0.631856305,137.86884 C0.632913034,137.746327 0.665307738,137.626118 0.725962564,137.519635 C0.845342208,137.301612 1.07548021,137.167277 1.32420949,137.170258 L32.9371904,137.170258 C33.1883159,137.164761 33.4216523,137.299449 33.5421592,137.519635 C33.6533018,137.729715 33.6533018,137.981103 33.5421592,138.191183 L17.7457516,165.523194 C17.632042,165.751127 17.3990601,165.895187 17.1441437,165.895187 C16.8892272,165.895187 16.6562454,165.751127 16.5425358,165.523194 L0.74612819,138.191183 C0.682628051,138.094488 0.643427411,137.983909 0.631856305,137.86884 Z M31.713809,138.540388 L2.5341471,138.540388 L17.127339,163.7906 L31.713809,138.540388 Z" id="Shape"></path>
                    <path d="M0.631856305,137.86884 C0.632913034,137.746327 0.665307738,137.626118 0.725962564,137.519635 L16.5223702,110.187624 C16.6428771,109.967438 16.8762135,109.83275 17.127339,109.838247 C17.3760683,109.835266 17.6062063,109.969601 17.7255859,110.187624 L33.5219936,137.519635 C33.6331361,137.729715 33.6331361,137.981103 33.5219936,138.191183 C33.3996965,138.408776 33.166713,138.540674 32.9170248,138.533938 L1.34437512,138.533938 C1.09707529,138.538166 0.867284246,138.406614 0.74612819,138.191183 C0.682628051,138.094488 0.643427411,137.983909 0.631856305,137.86884 Z M17.127339,111.926934 L2.5341471,137.17043 L31.713809,137.17043 L17.127339,111.926934 Z" id="Shape"></path>
                    <ellipse id="Oval" cx="95.9951053" cy="83.0705092" rx="4.17428474" ry="4.17031416"></ellipse>
                    <ellipse id="Oval" cx="127.567755" cy="83.0705092" rx="4.17428474" ry="4.17031416"></ellipse>
                    <ellipse id="Oval" cx="64.5501713" cy="83.0705092" rx="4.17428474" ry="4.17031416"></ellipse>
                    <ellipse id="Oval" cx="33.0985154" cy="83.0705092" rx="4.17428474" ry="4.17031416"></ellipse>
                    <ellipse id="Oval" cx="127.567755" cy="27.9095421" rx="4.16756286" ry="4.16359868"></ellipse>
                    <ellipse id="Oval" cx="33.0985154" cy="27.9095421" rx="4.16756286" ry="4.16359868"></ellipse>
                    <ellipse id="Oval" cx="80.178532" cy="55.8325152" rx="4.16756286" ry="4.16359868"></ellipse>
                    <ellipse id="Oval" cx="80.178532" cy="110.53683" rx="4.17428474" ry="4.17031416"></ellipse>
                    <ellipse id="Oval" cx="111.798235" cy="55.8325152" rx="4.16756286" ry="4.16359868"></ellipse>
                    <ellipse id="Oval" cx="111.798235" cy="110.53683" rx="4.17428474" ry="4.17031416"></ellipse>
                    <ellipse id="Oval" cx="48.7268761" cy="55.8325152" rx="4.16756286" ry="4.16359868"></ellipse>
                    <ellipse id="Oval" cx="48.7268761" cy="110.53683" rx="4.17428474" ry="4.17031416"></ellipse>
                    <ellipse id="Oval" cx="127.567755" cy="137.86884" rx="4.16756286" ry="4.16359868"></ellipse>
                    <ellipse id="Oval" cx="33.0985154" cy="137.86884" rx="4.16756286" ry="4.16359868"></ellipse>
                </g>
            </g>
        </g>
    </g>
</svg>